<svg width="20" height="20" viewBox="0 0 20 20" fill="none" xmlns="http://www.w3.org/2000/svg">
    <g clip-path="url(#clip0_1935_2864)">
        <path d="M19.9765 5.88005C19.9297 4.81738 19.7578 4.0868 19.5117 3.45374C19.2577 2.78176 18.867 2.18014 18.3551 1.68002C17.855 1.1721 17.2494 0.777435 16.5852 0.527447C15.9485 0.281274 15.2217 0.109427 14.1591 0.0625732C13.0885 0.0117516 12.7486 0 10.0332 0C7.31783 0 6.97795 0.0117516 5.9113 0.0586052C4.84863 0.105459 4.11804 0.277459 3.48514 0.523479C2.81301 0.777435 2.21139 1.16814 1.71126 1.68002C1.20335 2.18014 0.808837 2.78573 0.558697 3.44992C0.312524 4.0868 0.140677 4.81341 0.0938232 5.87609C0.0430015 6.9467 0.03125 7.28658 0.03125 10.002C0.03125 12.7173 0.0430015 13.0572 0.0898552 14.1239C0.136709 15.1865 0.308709 15.9171 0.554881 16.5502C0.808837 17.2221 1.20335 17.8238 1.71126 18.3239C2.21139 18.8318 2.81698 19.2265 3.48117 19.4765C4.11804 19.7226 4.84466 19.8945 5.90749 19.9413C6.97398 19.9883 7.31401 19.9999 10.0294 19.9999C12.7448 19.9999 13.0846 19.9883 14.1513 19.9413C15.214 19.8945 15.9445 19.7226 16.5774 19.4765C17.9215 18.9568 18.9842 17.8941 19.5039 16.5502C19.7499 15.9133 19.9219 15.1865 19.9688 14.1239C20.0156 13.0572 20.0274 12.7173 20.0274 10.002C20.0274 7.28658 20.0234 6.9467 19.9765 5.88005ZM18.1755 14.0457C18.1325 15.0225 17.9684 15.5499 17.8317 15.9015C17.4956 16.7728 16.8041 17.4643 15.9328 17.8004C15.5812 17.9372 15.0499 18.1012 14.077 18.1441C13.0221 18.1911 12.7057 18.2027 10.0372 18.2027C7.36865 18.2027 7.0483 18.1911 5.99723 18.1441C5.02047 18.1012 4.49303 17.9372 4.1414 17.8004C3.70781 17.6402 3.31314 17.3862 2.9928 17.0541C2.6607 16.7298 2.40674 16.3391 2.2465 15.9055C2.10975 15.5539 1.94569 15.0225 1.9028 14.0497C1.85579 12.9948 1.84419 12.6783 1.84419 10.0097C1.84419 7.34122 1.85579 7.02087 1.9028 5.96995C1.94569 4.99319 2.10975 4.46575 2.2465 4.11412C2.40674 3.68038 2.6607 3.28586 2.99676 2.96536C3.32092 2.63327 3.71162 2.37931 4.14536 2.21921C4.49699 2.08247 5.02841 1.9184 6.00119 1.87537C7.05609 1.82851 7.37262 1.81676 10.041 1.81676C12.7135 1.81676 13.0298 1.82851 14.0809 1.87537C15.0577 1.9184 15.5851 2.08247 15.9368 2.21921C16.3703 2.37931 16.765 2.63327 17.0854 2.96536C17.4175 3.28967 17.6714 3.68038 17.8317 4.11412C17.9684 4.46575 18.1325 4.99701 18.1755 5.96995C18.2224 7.02484 18.2341 7.34122 18.2341 10.0097C18.2341 12.6783 18.2224 12.9908 18.1755 14.0457Z" fill="#6F7977"/>
        <path d="M10.0362 4.86328C7.19976 4.86328 4.89844 7.16445 4.89844 10.001C4.89844 12.8376 7.19976 15.1387 10.0362 15.1387C12.8727 15.1387 15.1739 12.8376 15.1739 10.001C15.1739 7.16445 12.8727 4.86328 10.0362 4.86328ZM10.0362 13.3337C8.19605 13.3337 6.70345 11.8413 6.70345 10.001C6.70345 8.16074 8.19605 6.66829 10.0362 6.66829C11.8764 6.66829 13.3689 8.16074 13.3689 10.001C13.3689 11.8413 11.8764 13.3337 10.0362 13.3337Z" fill="#6F7977"/>
        <path d="M16.5787 4.66036C16.5787 5.32272 16.0416 5.85979 15.3791 5.85979C14.7167 5.85979 14.1797 5.32272 14.1797 4.66036C14.1797 3.99785 14.7167 3.46094 15.3791 3.46094C16.0416 3.46094 16.5787 3.99785 16.5787 4.66036Z" fill="#6F7977"/>
    </g>
    <defs>
        <clipPath id="clip0_1935_2864">
            <rect width="20" height="20" fill="white"/>
        </clipPath>
    </defs>
</svg>