<svg width="16" height="16" viewBox="0 0 16 16" fill="none" xmlns="http://www.w3.org/2000/svg">
    <rect width="16" height="16" fill="white"/>
    <path d="M13.003 8.89689L8.00555 14L3.00814 8.89689C2.67852 8.56617 2.41888 8.16867 2.24557 7.72941C2.07226 7.29015 1.98904 6.81865 2.00116 6.3446C2.01327 5.87055 2.12044 5.40422 2.31594 4.97498C2.51143 4.54574 2.79101 4.16288 3.13707 3.85051C3.48312 3.53814 3.88816 3.30304 4.32667 3.16C4.76518 3.01696 5.22766 2.96908 5.685 3.01938C6.14234 3.06968 6.58462 3.21707 6.984 3.45227C7.38338 3.68747 7.73119 4.00538 8.00555 4.38598C8.2811 4.00814 8.62932 3.69301 9.02842 3.46031C9.42752 3.2276 9.86892 3.08234 10.325 3.03361C10.781 2.98488 11.2419 3.03374 11.6788 3.17711C12.1157 3.32049 12.5192 3.5553 12.8641 3.86685C13.2089 4.1784 13.4877 4.55999 13.6829 4.98773C13.8781 5.41546 13.9856 5.88015 13.9987 6.35269C14.0117 6.82523 13.93 7.29546 13.7587 7.73395C13.5873 8.17244 13.3301 8.56975 13.003 8.90101" fill="#00B3A8"/>
    <path d="M13.003 8.89689L8.00555 14L3.00814 8.89689C2.67852 8.56617 2.41888 8.16867 2.24557 7.72941C2.07226 7.29015 1.98904 6.81865 2.00116 6.3446C2.01327 5.87055 2.12044 5.40422 2.31594 4.97498C2.51143 4.54574 2.79101 4.16288 3.13707 3.85051C3.48312 3.53814 3.88816 3.30304 4.32667 3.16C4.76518 3.01696 5.22766 2.96908 5.685 3.01938C6.14234 3.06968 6.58462 3.21707 6.984 3.45227C7.38338 3.68747 7.73119 4.00538 8.00555 4.38598C8.2811 4.00814 8.62932 3.69301 9.02842 3.46031C9.42752 3.2276 9.86892 3.08234 10.325 3.03361C10.781 2.98488 11.2419 3.03374 11.6788 3.17711C12.1157 3.32049 12.5192 3.5553 12.8641 3.86685C13.2089 4.1784 13.4877 4.55999 13.6829 4.98773C13.8781 5.41546 13.9856 5.88015 13.9987 6.35269C14.0117 6.82523 13.93 7.29546 13.7587 7.73395C13.5873 8.17244 13.3301 8.56975 13.003 8.90101" stroke="#00B3A8" stroke-width="1.5" stroke-linecap="round" stroke-linejoin="round"/>
</svg>