<svg width="25" height="24" viewBox="0 0 25 24" fill="none" xmlns="http://www.w3.org/2000/svg">
    <path d="M20.7003 8.00001L14.7003 2.74001C14.1503 2.24805 13.4382 1.97607 12.7003 1.97607C11.9624 1.97607 11.2503 2.24805 10.7003 2.74001L4.70029 8.00001C4.38266 8.28408 4.12919 8.63256 3.95676 9.02225C3.78433 9.41194 3.6969 9.83389 3.70029 10.26V19C3.70029 19.7957 4.01636 20.5587 4.57897 21.1213C5.14158 21.6839 5.90464 22 6.70029 22H18.7003C19.4959 22 20.259 21.6839 20.8216 21.1213C21.3842 20.5587 21.7003 19.7957 21.7003 19V10.25C21.7023 9.82557 21.6141 9.40555 21.4418 9.01769C21.2694 8.62983 21.0167 8.28296 20.7003 8.00001ZM14.7003 20H10.7003V15C10.7003 14.7348 10.8056 14.4804 10.9932 14.2929C11.1807 14.1054 11.4351 14 11.7003 14H13.7003C13.9655 14 14.2199 14.1054 14.4074 14.2929C14.5949 14.4804 14.7003 14.7348 14.7003 15V20ZM19.7003 19C19.7003 19.2652 19.5949 19.5196 19.4074 19.7071C19.2199 19.8946 18.9655 20 18.7003 20H16.7003V15C16.7003 14.2044 16.3842 13.4413 15.8216 12.8787C15.259 12.3161 14.4959 12 13.7003 12H11.7003C10.9046 12 10.1416 12.3161 9.57897 12.8787C9.01636 13.4413 8.70029 14.2044 8.70029 15V20H6.70029C6.43507 20 6.18072 19.8946 5.99318 19.7071C5.80565 19.5196 5.70029 19.2652 5.70029 19V10.25C5.70047 10.108 5.73088 9.9677 5.78951 9.83839C5.84813 9.70907 5.93362 9.59372 6.04029 9.50001L12.0403 4.25001C12.2228 4.08969 12.4574 4.00127 12.7003 4.00127C12.9432 4.00127 13.1778 4.08969 13.3603 4.25001L19.3603 9.50001C19.467 9.59372 19.5524 9.70907 19.6111 9.83839C19.6697 9.9677 19.7001 10.108 19.7003 10.25V19Z" fill="#00B3A8"/>
</svg>