<svg width="25" height="24" viewBox="0 0 25 24" fill="none" xmlns="http://www.w3.org/2000/svg">
    <g clip-path="url(#clip0_835_56279)">
        <path d="M11.5 5.25C12.7375 5.25 13.75 6.2625 13.75 7.5C13.75 8.7375 12.7375 9.75 11.5 9.75C10.2625 9.75 9.25 8.7375 9.25 7.5C9.25 6.2625 10.2625 5.25 11.5 5.25ZM11.5 16.5C14.5375 16.5 18.025 17.9513 18.25 18.75H4.75C5.00875 17.94 8.47375 16.5 11.5 16.5ZM11.5 3C9.01375 3 7 5.01375 7 7.5C7 9.98625 9.01375 12 11.5 12C13.9862 12 16 9.98625 16 7.5C16 5.01375 13.9862 3 11.5 3ZM11.5 14.25C8.49625 14.25 2.5 15.7575 2.5 18.75V21H20.5V18.75C20.5 15.7575 14.5037 14.25 11.5 14.25Z" fill="#00B3A8"/>
        <path d="M16 7.5C16 9.98528 13.9853 12 11.5 12C9.01472 12 7 9.98528 7 7.5C7 5.01472 9.01472 3 11.5 3C13.9853 3 16 5.01472 16 7.5ZM9.25284 7.5C9.25284 8.74107 10.2589 9.74716 11.5 9.74716C12.7411 9.74716 13.7472 8.74107 13.7472 7.5C13.7472 6.25893 12.7411 5.25284 11.5 5.25284C10.2589 5.25284 9.25284 6.25893 9.25284 7.5Z" fill="#00B3A8"/>
    </g>
    <defs>
        <clipPath id="clip0_835_56279">
            <rect width="24" height="24" fill="white" transform="translate(0.5)"/>
        </clipPath>
    </defs>
</svg>