<svg width="76" height="14" viewBox="0 0 76 14" fill="none" xmlns="http://www.w3.org/2000/svg">
    <path fill-rule="evenodd" clip-rule="evenodd" d="M25.8439 10.8515C25.309 10.8515 24.875 10.4257 24.875 9.90099V7.0099V3.50495C24.8649 1.57426 23.2702 0 21.2919 0H20.1312V3.15842H20.7974C21.3323 3.15842 21.7663 3.58416 21.7663 4.10891V7V10.4951C21.7663 12.4356 23.3711 14 25.3393 14H26.5V10.8416H25.8439V10.8515ZM0.5 12.2178L1.85249 10.0594C3.03339 10.8317 4.33541 11.2178 5.40528 11.2178C6.03106 11.2178 6.54581 11.0297 6.54581 10.6337C6.54581 10.2514 5.80302 10.0629 4.77119 9.80093L4.65839 9.77228C2.61957 9.23763 0.994566 8.58416 0.994566 6.50495C0.994566 4.34654 2.75078 3.14852 5.14286 3.14852C6.65684 3.14852 8.22128 3.58416 9.40218 4.32674L8.16072 6.57426C7.09085 6 5.93013 5.64357 5.10249 5.64357C4.54736 5.64357 4.26476 5.85149 4.26476 6.16832C4.26476 6.56436 4.86025 6.75248 5.95032 7.06931C7.99923 7.65347 9.62423 8.32674 9.62423 10.3267C9.62423 12.5545 7.91849 13.7228 5.40528 13.7228C3.64907 13.7228 1.93323 13.2376 0.5 12.2178ZM15.3874 3.51486C18.3246 3.51486 20.7065 5.85149 20.7065 8.73268V8.78219V9.43565H13.1165C13.3688 10.396 14.2772 11.0693 15.5287 11.0693C16.3261 11.0693 16.7803 10.8614 17.2042 10.5842L20.2523 11.4456C19.4752 12.8119 17.9309 13.9505 15.4884 13.9505C12.4604 13.9505 10.0683 11.6733 10.0683 8.73268C10.0683 5.85149 12.4503 3.51486 15.3874 3.51486ZM17.6685 8.04951C17.3758 7.08912 16.4674 6.39605 15.3874 6.39605C14.3176 6.39605 13.4092 7.08912 13.1064 8.04951H17.6685Z" fill="#00B3A8"/>
    <path d="M31.209 12.7344H33.0674V9.94141C33.2035 10.1562 33.4201 10.321 33.7173 10.4355C34.0145 10.5501 34.3457 10.6074 34.7109 10.6074C35.4736 10.6074 36.0895 10.3389 36.5586 9.80176C37.0312 9.26465 37.2676 8.55387 37.2676 7.66943V7.49756C37.2676 6.6167 37.0277 5.90771 36.5479 5.37061C36.0716 4.8335 35.4432 4.56494 34.6626 4.56494C34.2938 4.56494 33.9572 4.63477 33.6528 4.77441C33.3521 4.91406 33.1444 5.09131 33.0298 5.30615H33.0029L32.9707 4.67773H31.209V12.7344ZM33.0674 8.49658V6.65967C33.1569 6.45557 33.2983 6.27832 33.4917 6.12793C33.6851 5.97396 33.9214 5.89697 34.2007 5.89697C34.5946 5.89697 34.8864 6.03304 35.0762 6.30518C35.266 6.57373 35.3608 6.94792 35.3608 7.42773V7.74463C35.3608 8.22803 35.266 8.604 35.0762 8.87256C34.8864 9.14111 34.5981 9.27539 34.2114 9.27539C33.9393 9.27539 33.6994 9.1984 33.4917 9.04443C33.2876 8.88688 33.1462 8.70426 33.0674 8.49658ZM38.084 8.79199C38.084 9.39355 38.2881 9.84652 38.6963 10.1509C39.1081 10.4552 39.6094 10.6074 40.2002 10.6074C40.6764 10.6074 41.0757 10.5251 41.3979 10.3604C41.7202 10.1921 41.9368 9.9987 42.0479 9.78027C42.0586 9.90918 42.0801 10.0417 42.1123 10.1777C42.1481 10.3102 42.1875 10.4176 42.2305 10.5H44.0566V10.4141C43.9886 10.2673 43.9331 10.09 43.8901 9.88232C43.8507 9.67464 43.8311 9.45622 43.8311 9.22705V6.46094C43.8311 5.80208 43.5947 5.31331 43.1221 4.99463C42.6494 4.67594 41.9977 4.5166 41.167 4.5166C40.3398 4.5166 39.6667 4.69206 39.1475 5.04297C38.6318 5.3903 38.374 5.82536 38.374 6.34814V6.42871H40.2163V6.34814C40.2163 6.16911 40.2843 6.01693 40.4204 5.8916C40.5565 5.76628 40.7856 5.70361 41.1079 5.70361C41.4266 5.70361 41.6504 5.77344 41.7793 5.91309C41.9082 6.05273 41.9727 6.23356 41.9727 6.45557V6.81543H40.9199C40.1071 6.81543 39.4303 6.98193 38.8896 7.31494C38.3525 7.64795 38.084 8.1403 38.084 8.79199ZM39.9478 8.66309C39.9478 8.41602 40.0444 8.22445 40.2378 8.08838C40.4312 7.95231 40.7248 7.88428 41.1187 7.88428H41.9727V8.3999C41.9727 8.6792 41.8563 8.91911 41.6235 9.11963C41.3944 9.32015 41.1133 9.42041 40.7803 9.42041C40.4902 9.42041 40.279 9.35059 40.1465 9.21094C40.014 9.07129 39.9478 8.88867 39.9478 8.66309ZM45.1899 12.7344C45.2938 12.7738 45.4173 12.8042 45.5605 12.8257C45.7074 12.8507 45.8613 12.8633 46.0225 12.8633C46.5703 12.8633 47.0269 12.7183 47.3921 12.4282C47.7609 12.1418 48.0509 11.7282 48.2622 11.1875L50.8027 4.67773H49.0786L47.9775 7.91113C47.9274 8.05078 47.8862 8.18864 47.854 8.32471C47.8254 8.45719 47.8003 8.59326 47.7788 8.73291H47.7412C47.7197 8.59326 47.6911 8.4554 47.6553 8.31934C47.6195 8.18327 47.5765 8.0472 47.5264 7.91113L46.3608 4.67773H44.4702L46.8174 10.457L46.9731 10.4624C46.8693 10.867 46.7279 11.1517 46.5488 11.3164C46.3698 11.4811 46.1532 11.5635 45.8989 11.5635C45.7951 11.5635 45.6751 11.5509 45.5391 11.5259C45.4066 11.5008 45.2956 11.474 45.2061 11.4453L45.1899 12.7344Z" fill="#00B3A8"/>
    <path d="M60.9801 10.8515C60.4661 10.8515 60.049 10.4257 60.049 9.90099V7.0099V3.50495C60.049 1.56436 58.5068 0 56.6154 0H55.5V3.15842H56.1402C56.6542 3.15842 57.0713 3.58416 57.0713 4.10891V7V10.4951C57.0713 12.4356 58.6135 14 60.5049 14H61.6203V10.8416H60.9801V10.8515Z" fill="#00B3A8"/>
    <path d="M61.6203 8.74257C61.6203 5.86138 63.9093 3.52475 66.7318 3.52475C69.5543 3.52475 71.8434 5.86138 71.8434 8.74257C71.8434 11.6238 69.5543 13.9604 66.7318 13.9604C63.9093 13.9604 61.6203 11.6238 61.6203 8.74257Z" fill="#00B3A8"/>
    <path d="M75.5 12.4851C75.5 13.3069 74.8404 13.9802 74.0354 13.9802C73.2304 13.9802 72.5708 13.3069 72.5708 12.4851C72.5708 11.6634 73.2304 10.9901 74.0354 10.9901C74.8501 10.9901 75.5 11.6535 75.5 12.4851Z" fill="#00B3A8"/>
    <path d="M72.7454 0.762376V0H75.4224V0.762376V10.3267H72.7454V0.762376Z" fill="#00B3A8"/>
    <ellipse cx="66.692" cy="8.72975" rx="2.28571" ry="2.24" fill="white"/>
</svg>