<svg width="40" height="24" viewBox="0 0 40 24" fill="none" xmlns="http://www.w3.org/2000/svg">
    <g clip-path="url(#clip0_1904_2884)">
        <path d="M16.5332 0.515741C21.5692 0.515741 26.6008 0.524064 31.6368 0.499096C32.1906 0.494934 32.4096 0.669713 32.5341 1.16492C33.8521 6.53311 33.1952 11.61 30.1556 16.3249C28.6401 18.676 26.7769 20.7276 24.3598 22.2632C23.0589 23.0913 21.6636 23.5241 20.0708 23.5157C13.85 23.4741 7.63336 23.4991 1.41247 23.4991C0.356338 23.4991 0 23.1579 0 22.1466C0 15.3802 0 8.6138 0 1.84739C0 0.852814 0.347751 0.515741 1.36525 0.515741C6.42267 0.51158 11.4758 0.515741 16.5332 0.515741Z" fill="#3C4855"/>
        <path d="M32.2339 19.0101C33.612 18.3359 34.4406 17.1749 35.1576 15.9431C37.0981 12.5974 38.1285 9.01024 38.0856 5.10685C38.5192 5.2525 38.751 5.59374 38.9743 5.91416C39.9488 7.31239 40.112 8.90204 39.9402 10.5125C39.6182 13.5253 38.4419 16.2011 36.3769 18.4982C35.0846 19.9339 33.539 20.9992 31.6414 21.5443C31.4482 21.5984 31.255 21.6609 31.1005 21.7815C34.9129 21.4112 37.3729 19.2514 39.0558 15.9681C39.7127 17.2581 39.6182 18.4483 38.897 19.5843C37.7163 21.4361 35.8574 22.3766 33.8009 22.9967C32.5645 23.3712 31.2894 23.5168 29.9928 23.5085C27.6659 23.4877 25.339 23.5044 23.0206 23.5044C22.9519 23.3712 23.0722 23.3754 23.128 23.3545C27.082 21.7191 29.8125 18.8394 31.7874 15.2315C33.4661 12.1604 34.3462 8.88123 34.2689 5.38567C34.2345 3.90837 34.0328 2.45189 33.5476 1.04117C33.3544 0.479387 33.3931 0.446096 34.007 0.566776C35.3293 0.824782 36.0806 1.68203 36.54 2.83057C37.1926 4.466 37.1453 6.16801 36.9221 7.86169C36.5057 11.016 35.5526 14.0122 33.8868 16.7754C33.4059 17.5661 32.8564 18.3151 32.2339 19.0101Z" fill="url(#paint0_linear_1904_2884)"/>
        <path d="M25.4576 14.4155C23.7961 14.4155 22.8945 13.1837 22.8945 11.6481C22.8945 10.1417 24.0194 9.17627 25.5306 9.17627C27.0718 9.17627 28.1366 10.0294 28.1366 11.5774C28.1366 13.1462 27.1191 14.4155 25.4576 14.4155ZM25.5177 9.87122C24.4487 9.87122 24.1009 10.8159 24.1009 11.6856C24.1009 12.5512 24.4272 13.7122 25.5306 13.7122C26.5996 13.7122 26.9345 12.5012 26.9345 11.6773C26.9302 10.8367 26.5567 9.87122 25.5177 9.87122Z" fill="url(#paint1_linear_1904_2884)"/>
        <path d="M22.1427 9.72987C22.1342 9.49683 21.9367 9.30957 21.6962 9.30957H21.1853C21.0136 9.30957 20.8591 9.40112 20.7861 9.55093L19.6312 11.8189L18.442 9.54261C18.3647 9.40112 18.2101 9.31373 18.047 9.31373H17.5318C17.2871 9.31373 17.0896 9.50099 17.0853 9.73403L16.9651 13.8372C16.9565 14.0827 17.1626 14.2824 17.4116 14.2824H17.4288C17.6735 14.2824 17.871 14.0952 17.8753 13.858L17.9311 11.5734C17.9397 11.3278 17.944 10.8826 17.9397 10.7577H17.9525C18.0384 10.9824 18.2359 11.3487 18.3604 11.59L19.0903 12.88C19.2663 13.1963 19.7342 13.1963 19.9146 12.8842L20.6702 11.4693C20.7947 11.2363 20.9879 10.8368 21.078 10.6371H21.0909C21.0909 10.8701 21.1038 11.2862 21.1124 11.5817L21.1811 13.8621C21.1896 14.0952 21.3871 14.2824 21.6276 14.2824H21.8465C22.0998 14.2824 22.3016 14.0785 22.293 13.833L22.1427 9.72987Z" fill="url(#paint2_linear_1904_2884)"/>
        <path d="M15.5997 9.30127H15.3207C15.0759 9.30127 14.8742 9.49269 14.8742 9.73405V12.2975C14.8742 13.0465 14.5135 13.4543 13.818 13.4876C13.1268 13.4543 12.7619 13.0465 12.7619 12.2975V9.73405C12.7619 9.49685 12.5644 9.30127 12.3154 9.30127H12.0363C11.7916 9.30127 11.5898 9.49269 11.5898 9.73405V12.2975C11.5898 12.568 11.6199 12.8385 11.7015 13.0965C11.7702 13.317 11.8732 13.5292 12.0192 13.7123C12.1566 13.883 12.3283 14.0244 12.5215 14.1326C12.7276 14.245 12.9508 14.3282 13.1826 14.3615C13.5261 14.4073 13.7064 14.4031 13.9039 14.399C14.2817 14.3948 14.535 14.3698 14.8913 14.2367C14.9128 14.2284 14.9343 14.22 14.9557 14.2117C15.1618 14.1243 15.3507 13.9995 15.501 13.8413C15.6598 13.6749 15.78 13.4793 15.8659 13.2671C15.9604 13.0216 16.0119 12.7594 16.0247 12.4972C16.029 12.4306 16.029 12.3641 16.029 12.2975V9.73405C16.0419 9.49685 15.8444 9.30127 15.5997 9.30127Z" fill="url(#paint3_linear_1904_2884)"/>
        <path d="M7.45585 14.5531C6.99218 14.3909 6.65301 14.0663 6.42118 13.6085C6.12924 13.0342 5.91029 12.2353 5.91458 11.5861C5.91887 10.9743 5.95751 10.6456 6.15071 10.3335C5.84589 10.5374 5.60976 10.8495 5.52819 11.2157C5.30065 12.2144 5.79437 13.904 6.76464 14.4866C6.78181 14.499 6.81616 14.5157 6.7904 14.549C6.17647 14.4325 5.584 13.6418 5.29635 12.5474C5.23625 12.5598 5.21478 12.5973 5.18902 12.6347C4.97436 12.9718 5.00871 13.3255 5.17614 13.6584C5.54107 14.3742 6.11636 14.7529 6.86338 14.832C7.06087 14.8528 7.26695 14.8569 7.46014 14.7737C7.52025 14.7487 7.59323 14.7196 7.59752 14.6489C7.60182 14.549 7.50307 14.574 7.45585 14.5531Z" fill="url(#paint4_linear_1904_2884)"/>
        <path d="M9.25393 9.61324C9.49435 9.60492 9.49005 9.82131 9.44283 11.0531V11.2237C8.83748 11.2237 7.78994 11.2195 7.22323 11.2195C7.22323 10.175 7.40355 9.70896 7.48941 9.42182C7.21035 9.46343 6.78961 9.58828 6.55778 10.0585C6.27013 10.6453 6.20573 11.5275 6.31736 12.2391C6.4204 12.9007 6.78103 14.0909 7.62679 14.3656C7.6826 14.3822 7.73412 14.3239 7.70407 14.274C7.54952 14.016 7.25328 13.3543 7.21464 11.9894C7.69548 11.9977 8.98775 12.0185 9.43853 12.0144V12.1309V13.8953C9.43853 14.0951 9.60597 14.2532 9.80775 14.2532H10.2371C10.4432 14.2532 10.6063 14.0909 10.6063 13.8953V10.2791C10.6621 9.27201 9.61026 9.01817 9.25393 9.61324Z" fill="url(#paint5_linear_1904_2884)"/>
    </g>
    <defs>
        <linearGradient id="paint0_linear_1904_2884" x1="21.9836" y1="15.7825" x2="40.3791" y2="9.04474" gradientUnits="userSpaceOnUse">
            <stop offset="0.2783" stop-color="#9E8B3A"/>
            <stop offset="0.5912" stop-color="#F9ECA9"/>
            <stop offset="0.8284" stop-color="#B7A553"/>
        </linearGradient>
        <linearGradient id="paint1_linear_1904_2884" x1="21.4172" y1="8.00944" x2="28.3247" y2="14.7049" gradientUnits="userSpaceOnUse">
            <stop offset="0.2783" stop-color="#9E8B3A"/>
            <stop offset="0.5912" stop-color="#F9ECA9"/>
            <stop offset="0.8284" stop-color="#B7A553"/>
        </linearGradient>
        <linearGradient id="paint2_linear_1904_2884" x1="14.4721" y1="8.16864" x2="22.8223" y2="14.5128" gradientUnits="userSpaceOnUse">
            <stop offset="0.2783" stop-color="#9E8B3A"/>
            <stop offset="0.5912" stop-color="#F9ECA9"/>
            <stop offset="0.8284" stop-color="#B7A553"/>
        </linearGradient>
        <linearGradient id="paint3_linear_1904_2884" x1="7.70838" y1="6.28698" x2="17.5564" y2="15.1603" gradientUnits="userSpaceOnUse">
            <stop offset="0.2783" stop-color="#9E8B3A"/>
            <stop offset="0.5912" stop-color="#F9ECA9"/>
            <stop offset="0.8284" stop-color="#B7A553"/>
        </linearGradient>
        <linearGradient id="paint4_linear_1904_2884" x1="4.05152" y1="10.8605" x2="7.41267" y2="13.6943" gradientUnits="userSpaceOnUse">
            <stop offset="0.2783" stop-color="#9E8B3A"/>
            <stop offset="0.5912" stop-color="#F9ECA9"/>
            <stop offset="0.8284" stop-color="#B7A553"/>
        </linearGradient>
        <linearGradient id="paint5_linear_1904_2884" x1="5.46082" y1="9.18768" x2="8.82196" y2="12.0214" gradientUnits="userSpaceOnUse">
            <stop offset="0.2783" stop-color="#9E8B3A"/>
            <stop offset="0.5912" stop-color="#F9ECA9"/>
            <stop offset="0.8284" stop-color="#B7A553"/>
        </linearGradient>
        <clipPath id="clip0_1904_2884">
            <rect width="40" height="23" fill="white" transform="translate(0 0.5)"/>
        </clipPath>
    </defs>
</svg>