<svg viewBox="0 0 174 54" fill="none" xmlns="http://www.w3.org/2000/svg">
    <path fill-rule="evenodd" clip-rule="evenodd" d="M94.1624 41.8557C92.1749 41.8557 90.5624 40.2136 90.5624 38.1895V27.0382V13.5191C90.5249 6.07214 84.5999 0 77.2499 0H72.9374V12.1825H75.4124C77.3999 12.1825 79.0124 13.8246 79.0124 15.8487V27V40.4809C79.0124 47.9661 84.9749 54 92.2874 54H96.5999V41.8175H94.1624V41.8557ZM117.863 41.8557C115.875 41.8557 114.263 40.2136 114.263 38.1895V27.0382V13.5191C114.263 6.03395 108.3 0 100.988 0H96.675V12.1825H99.15C101.138 12.1825 102.75 13.8246 102.75 15.8487V27V40.4809C102.75 47.9661 108.713 54 116.025 54H120.338V41.8175H117.863V41.8557ZM120.338 33.7214C120.338 22.6082 129.188 13.5955 140.1 13.5955C151.013 13.5955 159.863 22.6082 159.863 33.7214C159.863 44.8345 151.013 53.8472 140.1 53.8472C129.188 53.8472 120.338 44.8345 120.338 33.7214ZM130.8 33.7214C130.8 38.9533 134.963 43.1924 140.1 43.1924C145.238 43.1924 149.4 38.9533 149.4 33.7214C149.4 28.4894 145.238 24.2503 140.1 24.2503C134.963 24.2503 130.8 28.4894 130.8 33.7214ZM174 48.157C174 51.3267 171.45 53.9236 168.337 53.9236C165.225 53.9236 162.675 51.3267 162.675 48.157C162.675 44.9873 165.225 42.3904 168.337 42.3904C171.488 42.3904 174 44.9491 174 48.157ZM163.35 2.94059V0H173.7V2.94059V39.8317H163.35V2.94059ZM0 47.1259L5.025 38.8006C9.4125 41.7794 14.25 43.2688 18.225 43.2688C20.55 43.2688 22.4625 42.5432 22.4625 41.0156C22.4625 39.5412 19.7028 38.8139 15.8691 37.8036L15.45 37.6931C7.875 35.6308 1.8375 33.1103 1.8375 25.0905C1.8375 16.7652 8.3625 12.1443 17.25 12.1443C22.875 12.1443 28.6875 13.8246 33.075 16.6888L28.4625 25.3579C24.4875 23.1429 20.175 21.768 17.1 21.768C15.0375 21.768 13.9875 22.57 13.9875 23.7921C13.9875 25.3197 16.2 26.0453 20.25 27.2673C27.8625 29.5205 33.9 32.1174 33.9 39.8317C33.9 48.4243 27.5625 52.9307 18.225 52.9307C11.7 52.9307 5.325 51.0594 0 47.1259ZM55.3125 13.5573C66.225 13.5573 75.075 22.57 75.075 33.6832V33.8741V36.3947H46.875C47.8125 40.099 51.1875 42.6959 55.8375 42.6959C58.8 42.6959 60.4875 41.8939 62.0625 40.8246L73.3875 44.1471C70.5 49.4173 64.7625 53.8091 55.6875 53.8091C44.4375 53.8091 35.55 45.0255 35.55 33.6832C35.55 22.57 44.4 13.5573 55.3125 13.5573ZM63.7875 31.0481C62.7 27.3437 59.325 24.6705 55.3125 24.6705C51.3375 24.6705 47.9625 27.3437 46.8375 31.0481H63.7875Z" fill="#00B3A8"/>
</svg>