<svg width="25" height="24" viewBox="0 0 25 24" fill="none" xmlns="http://www.w3.org/2000/svg">
    <path d="M9 19C8.70333 19 8.41332 19.088 8.16664 19.2528C7.91997 19.4176 7.72771 19.6519 7.61418 19.926C7.50065 20.2001 7.47094 20.5017 7.52882 20.7926C7.5867 21.0836 7.72956 21.3509 7.93934 21.5607C8.14912 21.7704 8.41639 21.9133 8.70736 21.9712C8.99834 22.0291 9.29994 21.9993 9.57403 21.8858C9.84811 21.7723 10.0824 21.58 10.2472 21.3334C10.412 21.0867 10.5 20.7967 10.5 20.5C10.5 20.1022 10.342 19.7206 10.0607 19.4393C9.77936 19.158 9.39782 19 9 19ZM19.5 16H7.5C7.23478 16 6.98043 15.8946 6.79289 15.7071C6.60536 15.5196 6.5 15.2652 6.5 15C6.5 14.7348 6.60536 14.4804 6.79289 14.2929C6.98043 14.1054 7.23478 14 7.5 14H15.991C16.6425 13.998 17.2758 13.7848 17.7959 13.3925C18.3161 13.0002 18.695 12.4499 18.876 11.824L20.461 6.274C20.5034 6.12526 20.5107 5.96872 20.4823 5.81669C20.454 5.66465 20.3907 5.52126 20.2976 5.3978C20.2045 5.27433 20.084 5.17414 19.9456 5.10512C19.8072 5.0361 19.6547 5.00011 19.5 5H7.24C7.03281 4.41702 6.65083 3.91213 6.14616 3.55421C5.64149 3.19629 5.0387 3.00275 4.42 3H3.5C3.23478 3 2.98043 3.10536 2.79289 3.29289C2.60536 3.48043 2.5 3.73478 2.5 4C2.5 4.26522 2.60536 4.51957 2.79289 4.70711C2.98043 4.89464 3.23478 5 3.5 5H4.421C4.63815 5.00069 4.84924 5.0717 5.02266 5.2024C5.19608 5.33309 5.3225 5.51644 5.383 5.725L5.538 6.27V6.275L7.179 12.017C6.41517 12.0987 5.71176 12.4702 5.21375 13.0551C4.71574 13.64 4.46107 14.3936 4.50222 15.1607C4.54338 15.9278 4.87722 16.6499 5.43496 17.1781C5.99269 17.7064 6.73181 18.0005 7.5 18H19.5C19.7652 18 20.0196 17.8946 20.2071 17.7071C20.3946 17.5196 20.5 17.2652 20.5 17C20.5 16.7348 20.3946 16.4804 20.2071 16.2929C20.0196 16.1054 19.7652 16 19.5 16ZM18.174 7L16.954 11.274C16.8936 11.4829 16.7671 11.6666 16.5935 11.7975C16.4199 11.9284 16.2085 11.9995 15.991 12H9.254L8.999 11.108L7.826 7H18.174ZM17 19C16.7033 19 16.4133 19.088 16.1666 19.2528C15.92 19.4176 15.7277 19.6519 15.6142 19.926C15.5006 20.2001 15.4709 20.5017 15.5288 20.7926C15.5867 21.0836 15.7296 21.3509 15.9393 21.5607C16.1491 21.7704 16.4164 21.9133 16.7074 21.9712C16.9983 22.0291 17.2999 21.9993 17.574 21.8858C17.8481 21.7723 18.0824 21.58 18.2472 21.3334C18.412 21.0867 18.5 20.7967 18.5 20.5C18.5 20.1022 18.342 19.7206 18.0607 19.4393C17.7794 19.158 17.3978 19 17 19Z" fill="#00B3A8"/>
</svg>